<svg viewBox="0 0 300 300" xmlns="http://www.w3.org/2000/svg">
  <!-- Simplified vault door -->
  <rect x="120" y="100" width="120" height="140" rx="6" ry="6" fill="#3498db"/>
  <circle cx="210" cy="170" r="10" fill="#f1c40f"/>
  
  <!-- Simple blockchain pattern - just 3 blocks -->
  <rect x="140" y="130" width="20" height="20" rx="3" ry="3" fill="#f1c40f"/>
  <rect x="170" y="130" width="20" height="20" rx="3" ry="3" fill="#f1c40f"/>
  <rect x="140" y="160" width="20" height="20" rx="3" ry="3" fill="#f1c40f"/>
  
  <!-- Connect the blocks with simple lines -->
  <line x1="150" y1="150" x2="150" y2="160" stroke="#f1c40f" stroke-width="2"/>
  <line x1="160" y1="140" x2="170" y2="140" stroke="#f1c40f" stroke-width="2"/>
  
  <!-- Simple dinosaur silhouette -->
  <path d="M90,170 Q70,160 80,140 Q90,130 100,140 L105,130 L115,135 L120,120 L135,123 Q150,110 165,135 
           Q180,150 183,165 L190,170 Q200,175 195,185 L180,190 Q175,200 165,195 Q150,205 130,195 
           Q110,195 100,190 Q90,185 90,170 Z" 
        fill="#2ecc71" stroke="#27ae60" stroke-width="2"/>
  
  <!-- Dinosaur eye -->
  <circle cx="95" cy="142" r="3" fill="#2c3e50"/>
</svg>